<svg version="1.1" xmlns="http://www.w3.org/2000/svg" viewBox="0 0 100 100" fill="#61DAFB">
	<title>Degiam</title>
	<path d="M42.4,52.2c0.4-5.2,0.6-8.4,0.6-9.6c0,0,0,0,0,0c0.9-7,2.8-14.2,5.7-21.5c4.6-10.4,7.6-16,8.9-17 c0,0.1,0,0.2,0,0.4l-1,17.1c-5.2,20.6-9.1,33.5-11.9,38.8c-0.6,1.8-1,2.7-1.2,2.7C43.5,63.2,43.1,59.5,42.4,52.2z M64.3,3.1 c0.1,0,0.2,0.6,0.2,1.7c-0.5,6.2-0.9,10.7-1.3,13.6c0-0.1,0-0.2,0.1-0.2c0,6.6-3.9,21.2-11.7,43.7c-3,5.8-4.5,9.1-4.5,10.1v0.3 c2.1,5.6,7.4,8.5,15.7,8.6h1.8c12.7,0,24.5-5.3,35.3-15.7V28c0-15.5-12.5-28-27.5-28h-8.8C64.1,0.9,64.3,1.8,64.3,3.1z M7.5,57.2 c4.3-3.5,10.1-5.7,17.6-6.6l5.1,0.2c1.4,0.4,3.2,0.9,5.4,1.5c0-0.4-0.1-0.8-0.1-1.4c0.2-9.9,2.3-20,6.3-30.3l6.2-13 C49.6,4.5,51.2,2,52.9,0H28C12.5,0,0,12.5,0,28v39.2C1.7,64,4.1,60.6,7.5,57.2z M92.5,79.5c-10.6,4.8-18.8,7.1-24.6,7.1 c-0.6,0-2.4,0.1-5.3,0.4c-2.7,0-7-1-12.9-3.1c-1.6-0.8-3.7-2.6-6.3-5.5c0.5,0.2,0.3,0.9-0.7,2C38,86.9,31.7,91,23.8,93 c-1.9,0.8-4.2,1.2-6.8,1c-2.8,0.1-5.3-0.4-7.6-1.1c4.9,4.4,11.4,7.1,18.6,7.1h44c15.1,0,27.3-11.8,27.9-26.3 C97.8,75.5,95.3,77.4,92.5,79.5z M16.3,88.3c7.9-0.5,14.9-4.6,21.2-12.4c1-2,1.5-3.3,1.5-3.9c-1.2-3.5-2.2-8-3-13.3 c0,0-1.3-0.2-3.8-0.5c-1.3-0.9-2.9-1.3-4.7-1.3c-10.4,0-18,5.2-22.8,15.5c-0.4,1.8-0.6,3-0.6,3.8c0,5.7,3,9.6,9,11.8 C14.7,88.2,15.7,88.3,16.3,88.3z"/>
</svg>